G04 #@! TF.FileFunction,Legend,Top*
%FSLAX46Y46*%
G04 Gerber Fmt 4.6, Leading zero omitted, Abs format (unit mm)*
G04 Created by KiCad (PCBNEW (2015-10-27 BZR 1, Git 48df08c)-product) date Thu 14 Jan 2016 01:38:52 AM PST*
%MOMM*%
G01*
G04 APERTURE LIST*
%ADD10C,0.100000*%
%ADD11C,0.150000*%
G04 APERTURE END LIST*
D10*
D11*
X139628880Y-104708960D02*
X139628880Y-99507040D01*
X137231120Y-99507040D02*
X137231120Y-104708960D01*
X136131300Y-106707940D02*
X137231120Y-106707940D01*
X136631680Y-107307380D02*
X136631680Y-106108500D01*
X137231120Y-106103420D02*
X139628880Y-106103420D01*
X142240000Y-92202000D02*
X149860000Y-92202000D01*
X149860000Y-92202000D02*
X149860000Y-87122000D01*
X149860000Y-87122000D02*
X139700000Y-87122000D01*
X139700000Y-87122000D02*
X139700000Y-89662000D01*
X139420000Y-90932000D02*
X139420000Y-92482000D01*
X139700000Y-89662000D02*
X142240000Y-89662000D01*
X142240000Y-89662000D02*
X142240000Y-92202000D01*
X139420000Y-92482000D02*
X140970000Y-92482000D01*
X123411100Y-106941460D02*
X132111100Y-106941460D01*
X123411100Y-100536460D02*
X132111100Y-100536460D01*
X132111100Y-100536460D02*
X132111100Y-106941460D01*
X132111100Y-105711460D02*
X123411100Y-105711460D01*
X123411100Y-106941460D02*
X123411100Y-100536460D01*
X133342000Y-94147000D02*
X132342000Y-94147000D01*
X132342000Y-92797000D02*
X133342000Y-92797000D01*
X133342000Y-96687000D02*
X132342000Y-96687000D01*
X132342000Y-95337000D02*
X133342000Y-95337000D01*
X145280000Y-95925000D02*
X144280000Y-95925000D01*
X144280000Y-94575000D02*
X145280000Y-94575000D01*
X148971000Y-100965000D02*
X148971000Y-97917000D01*
X148971000Y-97917000D02*
X141859000Y-97917000D01*
X141859000Y-97917000D02*
X141859000Y-100965000D01*
X148971000Y-104013000D02*
X148971000Y-104775000D01*
X148971000Y-104775000D02*
X147447000Y-107061000D01*
X147447000Y-107061000D02*
X143383000Y-107061000D01*
X143383000Y-107061000D02*
X141859000Y-104775000D01*
X141859000Y-104775000D02*
X141859000Y-104013000D01*
X125984000Y-92456000D02*
X125984000Y-87376000D01*
X125984000Y-87376000D02*
X123444000Y-87376000D01*
X123444000Y-87376000D02*
X123444000Y-92456000D01*
X123164000Y-95276000D02*
X123164000Y-93726000D01*
X123444000Y-92456000D02*
X125984000Y-92456000D01*
X126264000Y-93726000D02*
X126264000Y-95276000D01*
X126264000Y-95276000D02*
X123164000Y-95276000D01*
X136501143Y-104814666D02*
X136548762Y-104862285D01*
X136596381Y-105005142D01*
X136596381Y-105100380D01*
X136548762Y-105243238D01*
X136453524Y-105338476D01*
X136358286Y-105386095D01*
X136167810Y-105433714D01*
X136024952Y-105433714D01*
X135834476Y-105386095D01*
X135739238Y-105338476D01*
X135644000Y-105243238D01*
X135596381Y-105100380D01*
X135596381Y-105005142D01*
X135644000Y-104862285D01*
X135691619Y-104814666D01*
X136596381Y-103862285D02*
X136596381Y-104433714D01*
X136596381Y-104148000D02*
X135596381Y-104148000D01*
X135739238Y-104243238D01*
X135834476Y-104338476D01*
X135882095Y-104433714D01*
X136700569Y-107088892D02*
X136700569Y-106326987D01*
X137081521Y-106707939D02*
X136319616Y-106707939D01*
X138104571Y-91328667D02*
X138104571Y-90995333D01*
X138628381Y-90852476D02*
X138628381Y-91328667D01*
X137628381Y-91328667D01*
X137628381Y-90852476D01*
X138580762Y-90471524D02*
X138628381Y-90328667D01*
X138628381Y-90090571D01*
X138580762Y-89995333D01*
X138533143Y-89947714D01*
X138437905Y-89900095D01*
X138342667Y-89900095D01*
X138247429Y-89947714D01*
X138199810Y-89995333D01*
X138152190Y-90090571D01*
X138104571Y-90281048D01*
X138056952Y-90376286D01*
X138009333Y-90423905D01*
X137914095Y-90471524D01*
X137818857Y-90471524D01*
X137723619Y-90423905D01*
X137676000Y-90376286D01*
X137628381Y-90281048D01*
X137628381Y-90042952D01*
X137676000Y-89900095D01*
X138628381Y-89471524D02*
X137628381Y-89471524D01*
X137628381Y-89090571D01*
X137676000Y-88995333D01*
X137723619Y-88947714D01*
X137818857Y-88900095D01*
X137961714Y-88900095D01*
X138056952Y-88947714D01*
X138104571Y-88995333D01*
X138152190Y-89090571D01*
X138152190Y-89471524D01*
X138628381Y-87947714D02*
X138628381Y-88519143D01*
X138628381Y-88233429D02*
X137628381Y-88233429D01*
X137771238Y-88328667D01*
X137866476Y-88423905D01*
X137914095Y-88519143D01*
X126896905Y-104465381D02*
X126896905Y-103465381D01*
X127277858Y-103465381D01*
X127373096Y-103513000D01*
X127420715Y-103560619D01*
X127468334Y-103655857D01*
X127468334Y-103798714D01*
X127420715Y-103893952D01*
X127373096Y-103941571D01*
X127277858Y-103989190D01*
X126896905Y-103989190D01*
X128420715Y-104465381D02*
X127849286Y-104465381D01*
X128135000Y-104465381D02*
X128135000Y-103465381D01*
X128039762Y-103608238D01*
X127944524Y-103703476D01*
X127849286Y-103751095D01*
X129373334Y-93924381D02*
X129040000Y-93448190D01*
X128801905Y-93924381D02*
X128801905Y-92924381D01*
X129182858Y-92924381D01*
X129278096Y-92972000D01*
X129325715Y-93019619D01*
X129373334Y-93114857D01*
X129373334Y-93257714D01*
X129325715Y-93352952D01*
X129278096Y-93400571D01*
X129182858Y-93448190D01*
X128801905Y-93448190D01*
X130325715Y-93924381D02*
X129754286Y-93924381D01*
X130040000Y-93924381D02*
X130040000Y-92924381D01*
X129944762Y-93067238D01*
X129849524Y-93162476D01*
X129754286Y-93210095D01*
X129373334Y-96464381D02*
X129040000Y-95988190D01*
X128801905Y-96464381D02*
X128801905Y-95464381D01*
X129182858Y-95464381D01*
X129278096Y-95512000D01*
X129325715Y-95559619D01*
X129373334Y-95654857D01*
X129373334Y-95797714D01*
X129325715Y-95892952D01*
X129278096Y-95940571D01*
X129182858Y-95988190D01*
X128801905Y-95988190D01*
X129754286Y-95559619D02*
X129801905Y-95512000D01*
X129897143Y-95464381D01*
X130135239Y-95464381D01*
X130230477Y-95512000D01*
X130278096Y-95559619D01*
X130325715Y-95654857D01*
X130325715Y-95750095D01*
X130278096Y-95892952D01*
X129706667Y-96464381D01*
X130325715Y-96464381D01*
X144613334Y-94178381D02*
X144280000Y-93702190D01*
X144041905Y-94178381D02*
X144041905Y-93178381D01*
X144422858Y-93178381D01*
X144518096Y-93226000D01*
X144565715Y-93273619D01*
X144613334Y-93368857D01*
X144613334Y-93511714D01*
X144565715Y-93606952D01*
X144518096Y-93654571D01*
X144422858Y-93702190D01*
X144041905Y-93702190D01*
X144946667Y-93178381D02*
X145565715Y-93178381D01*
X145232381Y-93559333D01*
X145375239Y-93559333D01*
X145470477Y-93606952D01*
X145518096Y-93654571D01*
X145565715Y-93749810D01*
X145565715Y-93987905D01*
X145518096Y-94083143D01*
X145470477Y-94130762D01*
X145375239Y-94178381D01*
X145089524Y-94178381D01*
X144994286Y-94130762D01*
X144946667Y-94083143D01*
X144653095Y-102703381D02*
X144653095Y-103512905D01*
X144700714Y-103608143D01*
X144748333Y-103655762D01*
X144843571Y-103703381D01*
X145034048Y-103703381D01*
X145129286Y-103655762D01*
X145176905Y-103608143D01*
X145224524Y-103512905D01*
X145224524Y-102703381D01*
X146224524Y-103703381D02*
X145653095Y-103703381D01*
X145938809Y-103703381D02*
X145938809Y-102703381D01*
X145843571Y-102846238D01*
X145748333Y-102941476D01*
X145653095Y-102989095D01*
X127865143Y-92352666D02*
X127912762Y-92400285D01*
X127960381Y-92543142D01*
X127960381Y-92638380D01*
X127912762Y-92781238D01*
X127817524Y-92876476D01*
X127722286Y-92924095D01*
X127531810Y-92971714D01*
X127388952Y-92971714D01*
X127198476Y-92924095D01*
X127103238Y-92876476D01*
X127008000Y-92781238D01*
X126960381Y-92638380D01*
X126960381Y-92543142D01*
X127008000Y-92400285D01*
X127055619Y-92352666D01*
X127674667Y-91971714D02*
X127674667Y-91495523D01*
X127960381Y-92066952D02*
X126960381Y-91733619D01*
X127960381Y-91400285D01*
X127960381Y-91066952D02*
X126960381Y-91066952D01*
X127674667Y-90733618D01*
X126960381Y-90400285D01*
X127960381Y-90400285D01*
X127960381Y-89400285D02*
X127960381Y-89971714D01*
X127960381Y-89686000D02*
X126960381Y-89686000D01*
X127103238Y-89781238D01*
X127198476Y-89876476D01*
X127246095Y-89971714D01*
M02*
